# xmcd CD database file
#
# Track frame offsets:
#	150
#	13863
#	31070
#	48115
#	59228
#	80458
#	99643
#	115615
#	131003
#	144958
#	164273
#	182578
#	199913
#	221395
#
# Disc length: 3180 seconds
#
# Revision: 2
# Processed by: cddbd v1.5.2PL0 Copyright (c) Steve Scherf et al.
# Submitted via: CDex 1.51
#
DISCID=bc0c6a0e
DTITLE=Joyce and Dori Caymmi - Rio - Bahia
DYEAR=2005
DGENRE=Salsa
TTITLE0=Mercador de Siri
TTITLE1=Rio - Bahia
TTITLE2=Flor da Bahia
TTITLE3=Joaozinho Boa Pinta
TTITLE4=Fora de Hora
TTITLE5=Daqui
TTITLE6=The Colors of Joy
TTITLE7=E Era Copacabana
TTITLE8=Jogo de Cintura
TTITLE9=Saudade da Bahia
TTITLE10=Demor
TTITLE11=Rancho da Noite
TTITLE12=Saudade do Rio
TTITLE13=Pra Que Chorar
EXTD=FARO 102CD YEAR: 2005
EXTT0=
EXTT1=
EXTT2=
EXTT3=
EXTT4=
EXTT5=
EXTT6=
EXTT7=
EXTT8=
EXTT9=
EXTT10=
EXTT11=
EXTT12=
EXTT13=
PLAYORDER=
